<?xml version="1.0" standalone="no"?>
<!DOCTYPE svg PUBLIC "-//W3C//DTD SVG 20010904//EN"
 "http://www.w3.org/TR/2001/REC-SVG-20010904/DTD/svg10.dtd">
<svg version="1.0" xmlns="http://www.w3.org/2000/svg"
 width="128.000000pt" height="128.000000pt" viewBox="0 0 128.000000 128.000000"
 preserveAspectRatio="xMidYMid meet">
<metadata>
Created by potrace 1.15, written by Peter Selinger 2001-2017
</metadata>
<g transform="translate(0.000000,128.000000) scale(0.100000,-0.100000)"
fill="#000000" stroke="none">
<path d="M500 1264 c-111 -23 -224 -86 -311 -173 -334 -334 -207 -887 241
-1057 69 -26 86 -28 210 -28 124 0 141 2 210 28 190 72 325 207 396 396 25 68
28 88 28 205 1 145 -8 185 -72 310 -24 47 -61 95 -112 146 -157 156 -374 220
-590 173z m191 -404 c17 -9 19 -22 19 -105 0 -61 4 -96 12 -101 16 -10 62 47
101 126 l32 65 84 3 c46 2 89 -2 94 -7 16 -16 0 -54 -63 -141 -33 -46 -60 -87
-60 -91 0 -4 27 -36 60 -70 64 -66 83 -105 59 -120 -8 -5 -49 -9 -92 -9 l-78
0 -53 50 c-70 66 -84 65 -96 -10 -5 -34 -6 -35 -58 -38 -144 -8 -250 83 -367
318 -26 50 -44 98 -41 106 4 10 25 14 80 14 l75 0 41 -79 c45 -87 84 -131 101
-114 5 5 9 42 7 84 -3 66 -6 75 -26 85 l-24 12 23 16 c27 18 139 22 170 6z"/>
</g>
</svg>
